<svg width="83" height="85" viewBox="0 0 83 85" fill="none" xmlns="http://www.w3.org/2000/svg">
<g clip-path="url(#clip0_11_1590)">
<path d="M44.3004 44.0271C44.3202 44.5113 44.4592 44.9693 44.7174 45.3815C44.9391 45.7414 45.505 45.3979 45.2833 45.0413C45.088 44.7239 44.9788 44.3869 44.9656 44.0172C44.9457 43.5952 44.2838 43.6083 44.3004 44.0271Z" fill="#46A358"/>
<path d="M52.8092 43.9845C52.7761 44.1677 52.7397 44.3476 52.7066 44.5308C52.6735 44.7042 52.7661 44.8842 52.9449 44.93C53.1103 44.9725 53.3155 44.8678 53.3486 44.6944C53.3817 44.5112 53.4181 44.3313 53.4512 44.1481C53.4843 43.9747 53.3916 43.7947 53.2129 43.7489C53.0475 43.7064 52.8423 43.8111 52.8092 43.9845Z" fill="#46A358"/>
<path d="M57.3398 44.6355C57.7668 44.6257 57.7535 43.9714 57.3266 43.9812C56.8997 43.991 56.9129 44.6453 57.3398 44.6355Z" fill="#46A358"/>
<path d="M32.4822 45.7937C32.9091 45.7839 32.8959 45.1296 32.4689 45.1394C32.042 45.1492 32.0552 45.8035 32.4822 45.7937Z" fill="#46A358"/>
<path d="M44.5883 4.38731C42.0334 11.8369 40.6401 19.6399 40.4878 27.5083C40.4117 31.4638 40.6467 35.4225 41.1928 39.342C41.4443 41.1479 41.762 42.9474 42.1459 44.7304C42.4471 46.1242 42.6026 47.7175 43.6484 48.7808C44.0952 49.2355 44.7803 48.5256 44.3368 48.0741C43.2083 46.9257 43.0924 44.4981 42.8012 42.9964C42.4338 41.0989 42.1426 39.1849 41.9275 37.2612C41.5204 33.6231 41.3847 29.9588 41.5138 26.301C41.7752 18.9201 43.1553 11.621 45.5514 4.62941C45.7566 4.03069 44.7902 3.79186 44.5883 4.38731Z" fill="#46A358"/>
<path d="M48.4406 4.52141C49.7777 11.9645 49.8108 19.5712 50.0788 27.1058C50.2046 30.6458 50.4197 34.1956 50.3469 37.7388C50.2708 41.4162 49.546 44.8744 48.5697 48.4078C48.4009 49.0196 49.364 49.2584 49.5328 48.6499C50.4495 45.3422 51.1776 42.0771 51.3166 38.6353C51.4721 34.791 51.2107 30.9272 51.075 27.0895C50.8036 19.4632 50.7473 11.778 49.3938 4.24332C49.2812 3.6217 48.3281 3.90307 48.4406 4.52141Z" fill="#46A358"/>
<path d="M55.6288 17.3105C56.0822 27.4952 56.4926 37.8043 53.9774 47.7796C53.8218 48.3947 54.7849 48.6336 54.9405 48.0217C57.4755 37.9613 57.0817 27.5606 56.6217 17.2908C56.5919 16.6594 55.599 16.6758 55.6288 17.3105Z" fill="#46A358"/>
<path d="M52.8224 17.4609C51.4158 19.0869 50.4759 20.978 50.0622 23.0817C49.9398 23.7 50.9029 23.9454 51.0253 23.3238C51.4059 21.3804 52.2366 19.6464 53.5372 18.1414C53.9509 17.6605 53.2394 16.98 52.8224 17.4609Z" fill="#46A358"/>
<path d="M62.6054 23.7164C62.5822 31.0908 61.5828 38.3965 59.6235 45.5124C59.4547 46.1242 60.4178 46.363 60.5866 45.7545C62.5657 38.5568 63.5751 31.1562 63.5983 23.6968C63.5983 23.0654 62.6054 23.085 62.6054 23.7164Z" fill="#46A358"/>
<path d="M60.719 21.5211C58.1509 24.4624 56.8899 28.0841 55.9831 31.8106C55.8342 32.4257 56.7973 32.6678 56.9462 32.0527C57.8133 28.5029 58.9849 25.012 61.4372 22.2017C61.8509 21.724 61.136 21.0402 60.719 21.5211Z" fill="#46A358"/>
<path d="M36.7547 10.4171C38.522 14.5329 39.8061 18.7991 40.6004 23.1995C40.7129 23.8212 41.6628 23.5365 41.5535 22.9182C40.7593 18.5178 39.4719 14.2515 37.7079 10.1357C37.4597 9.56317 36.5065 9.83472 36.7547 10.4171Z" fill="#46A358"/>
<path d="M34.9146 10.7736C34.395 17.0193 33.8854 23.3434 34.9378 29.5662C36.0399 36.0572 38.7471 42.3912 40.8287 48.6237C41.0273 49.2224 41.9804 48.9443 41.7819 48.3423C39.7664 42.2995 37.1618 36.1553 35.9968 29.8868C34.8253 23.5757 35.378 17.101 35.9075 10.754C35.9604 10.1258 34.9676 10.1487 34.9146 10.7736Z" fill="#46A358"/>
<path d="M28.5969 25.8626C31.9097 28.9118 34.5937 32.4779 36.6059 36.4858C36.8905 37.0518 37.7345 36.5348 37.4532 35.9721C35.4046 31.8923 32.6577 28.2575 29.2853 25.1526C28.8186 24.7241 28.1303 25.4307 28.5969 25.8626Z" fill="#46A358"/>
<path d="M26.3231 27.1222C28.8879 34.6995 32.3398 41.9364 36.6256 48.7088C36.9632 49.2454 37.8137 48.735 37.4728 48.1951C33.23 41.4915 29.8146 34.3396 27.2762 26.8409C27.0743 26.2454 26.1212 26.5203 26.3231 27.1222Z" fill="#46A358"/>
<path d="M32.0685 46.7621C30.6057 44.1775 28.4611 42.028 25.7936 40.6604C25.2509 40.3823 24.7313 40.4543 25.7837 40.3496C26.1676 40.3104 26.5647 40.294 26.9486 40.3005C28.1996 40.3136 29.3315 40.5361 30.4071 41.2068C31.6581 41.9855 32.7502 43.1044 33.8688 44.0564C34.352 44.4687 35.0404 43.762 34.5572 43.3498C33.1407 42.1392 31.7375 40.6277 30 39.8752C29.0303 39.4532 27.9812 39.3288 26.9288 39.3256C26.2603 39.3223 24.8703 39.198 24.311 39.7607C23.2188 40.8535 25.3104 41.498 25.9624 41.8808C28.1996 43.1829 29.9603 45.0543 31.2212 47.2856C31.5323 47.8287 32.3796 47.315 32.0685 46.7621Z" fill="#46A358"/>
<path d="M62.2811 38.7923C63.2508 36.6559 65.5046 35.9852 67.6492 35.5403C67.9636 35.4749 68.0893 35.0626 67.9305 34.814C66.7655 32.9949 64.6441 32.8084 62.6551 32.9884C62.023 33.044 62.0362 34.0255 62.675 33.9699C64.2801 33.8259 66.1169 33.8161 67.0832 35.3276C67.1759 35.0855 67.2719 34.8434 67.3646 34.6013C64.9751 35.0953 62.483 35.9492 61.414 38.3147C61.1526 38.8872 62.0197 39.3682 62.2811 38.7923Z" fill="#46A358"/>
<path d="M28.4313 24.9138C27.9944 25.4831 27.5046 26.193 26.7798 26.4221C26.065 26.6478 25.3005 26.3239 25.3567 25.47C25.3998 24.8026 25.9789 24.3151 26.5415 24.037C27.1968 23.7131 28.9939 23.5593 28.5173 24.8026C28.2923 25.3948 29.2553 25.627 29.4804 25.0447C29.9404 23.844 28.835 22.7938 27.6635 22.7709C26.4323 22.748 24.9993 23.5561 24.536 24.711C24.1024 25.7808 24.5558 27.1189 25.7605 27.4232C27.2332 27.7929 28.3485 26.638 29.1494 25.5976C29.53 25.0938 28.8185 24.41 28.4313 24.9138Z" fill="#46A358"/>
<path d="M36.9963 9.6809C36.3775 9.7954 35.4806 10.1945 34.8617 9.86738C34.2428 9.53694 34.3553 8.71575 34.7128 8.24135C35.0867 7.74733 35.6758 7.56739 36.2715 7.73097C36.7547 7.86511 38.2606 9.11489 37.2115 9.54676C36.629 9.78559 36.9037 10.7311 37.4961 10.489C38.7371 9.97862 38.6941 8.55871 37.8965 7.64591C37.0923 6.72329 35.6527 6.37322 34.5771 7.04392C33.6372 7.63282 33.1143 8.91532 33.6239 9.94263C34.3454 11.4018 36.0333 10.8522 37.281 10.6231C37.9065 10.5054 37.6185 9.56311 36.9963 9.6809Z" fill="#46A358"/>
<path d="M48.7915 3.6937C47.931 3.9129 46.9282 4.17136 46.0413 3.9587C44.7936 3.66425 44.7472 2.25089 45.6243 1.51803C46.3259 0.932397 47.4015 0.866963 48.252 1.12215C48.7882 1.28247 49.417 1.62927 49.5626 2.21162C49.7016 2.758 49.4335 3.29782 48.8775 3.43196C48.2586 3.58246 48.5399 4.5247 49.1621 4.37421C50.6415 4.01432 50.9658 2.19199 50.0557 1.11888C49.0298 -0.0883685 46.9712 -0.294485 45.5912 0.372939C44.2938 1.0011 43.5029 2.68929 44.3666 3.97833C45.3661 5.47349 47.6199 5.00237 49.0728 4.6294C49.6917 4.47563 49.4103 3.53338 48.7915 3.6937Z" fill="#46A358"/>
<path d="M55.8704 13.3419C54.444 13.09 52.8819 13.4989 52.23 14.8959C51.7004 16.0279 52.2002 17.4969 53.4313 17.9222C54.6724 18.3508 56.5555 17.8208 57.2439 16.6823C57.9025 15.5863 57.4259 14.1958 56.3867 13.5414C55.8473 13.2012 55.3674 14.0616 55.9035 14.3986C56.572 14.8174 56.7905 15.7695 56.2444 16.3813C55.7579 16.9276 54.7187 17.1599 54.0138 17.0356C53.107 16.8753 52.7562 15.9363 53.2096 15.1609C53.706 14.3136 54.7286 14.1369 55.6288 14.2939C56.2543 14.4052 56.4992 13.4531 55.8704 13.3419Z" fill="#46A358"/>
<path d="M63.5651 18.7663C62.3108 18.6845 60.5733 18.8612 60.2953 20.3793C60.0669 21.6225 61.4966 23.2649 62.5921 23.7066C65.7196 24.9662 66.3881 18.6845 63.6908 18.8514C63.0554 18.8906 63.072 19.8721 63.7107 19.8329C64.5877 19.7773 64.3726 21.8286 64.174 22.2343C63.7074 23.1995 62.8138 22.8461 62.2247 22.231C61.7713 21.7566 60.9572 20.9158 61.4271 20.2353C61.8805 19.581 62.8932 19.7053 63.5849 19.7478C64.2237 19.7904 64.1972 18.8089 63.5651 18.7663Z" fill="#46A358"/>
<path d="M45.6374 6.17685C45.5381 6.50729 45.4355 6.83773 45.3362 7.16817C45.2138 7.57386 45.8558 7.7309 45.9783 7.32849C46.0776 6.99805 46.1802 6.66761 46.2795 6.33717C46.4019 5.93148 45.7599 5.77444 45.6374 6.17685Z" fill="#46A358"/>
<path d="M47.0506 6.23258C47.0539 6.45178 47.0605 6.66771 47.0638 6.88692C47.0738 7.30896 47.7357 7.29588 47.7257 6.87383C47.7224 6.65463 47.7158 6.43869 47.7125 6.21949C47.7059 5.79744 47.044 5.81053 47.0506 6.23258Z" fill="#46A358"/>
<path d="M46.5808 10.1683C47.0077 10.1585 46.9945 9.50415 46.5675 9.51396C46.1439 9.52051 46.1571 10.1748 46.5808 10.1683Z" fill="#46A358"/>
<path d="M44.605 10.5348C44.5752 10.8979 44.5455 11.2643 44.519 11.6275C44.5057 11.8042 44.6911 11.9514 44.8566 11.9481C45.0518 11.9448 45.1676 11.7911 45.1809 11.6144C45.2107 11.2513 45.2405 10.8848 45.2669 10.5217C45.2802 10.345 45.0948 10.1978 44.9294 10.201C44.7341 10.2043 44.6183 10.3581 44.605 10.5348Z" fill="#46A358"/>
<path d="M46.1703 11.5948C46.1802 11.9939 46.1868 12.3931 46.1968 12.7955C46.2067 13.2175 46.8686 13.2044 46.8587 12.7824C46.8487 12.3832 46.8421 11.9841 46.8322 11.5817C46.8223 11.1596 46.1603 11.1727 46.1703 11.5948Z" fill="#46A358"/>
<path d="M47.3419 9.27847C47.3849 9.60564 47.4279 9.9328 47.471 10.2567C47.4941 10.4334 47.6166 10.5806 47.8085 10.5773C47.9707 10.5741 48.156 10.4203 48.1329 10.2436C48.0898 9.91645 48.0468 9.58928 48.0038 9.26538C47.9806 9.08871 47.8582 8.94148 47.6662 8.94476C47.5008 8.94803 47.3154 9.1018 47.3419 9.27847Z" fill="#46A358"/>
<path d="M47.4379 14.186C47.4412 14.3692 47.4445 14.5492 47.4478 14.7324C47.4577 15.1544 48.1196 15.1413 48.1097 14.7193C48.1064 14.5361 48.1031 14.3561 48.0998 14.1729C48.0898 13.7509 47.4279 13.764 47.4379 14.186Z" fill="#46A358"/>
<path d="M46.0048 8.86957C45.9717 9.19347 46.0445 9.49773 46.1802 9.79218C46.253 9.9525 46.4979 9.98521 46.6369 9.90015C46.8057 9.79873 46.8189 9.61224 46.7461 9.44866C46.66 9.26217 46.6468 9.05605 46.6667 8.85321C46.6832 8.67654 46.4913 8.52931 46.3291 8.53259C46.1338 8.53913 46.0213 8.6929 46.0048 8.86957Z" fill="#46A358"/>
<path d="M43.6948 14.0649C43.6286 14.4313 43.5624 14.7945 43.4962 15.1609C43.4201 15.5731 44.0622 15.7367 44.1383 15.3212C44.2045 14.9548 44.2707 14.5916 44.3369 14.2252C44.4097 13.813 43.7709 13.6494 43.6948 14.0649Z" fill="#46A358"/>
<path d="M45.5183 16.3223C45.4885 16.5775 45.4554 16.8327 45.4256 17.0879C45.4058 17.2645 45.4753 17.4379 45.6639 17.487C45.8195 17.5263 46.0445 17.4281 46.0677 17.2515C46.0975 16.9963 46.1306 16.7411 46.1603 16.4859C46.1802 16.3092 46.1107 16.1358 45.9221 16.0867C45.7665 16.0442 45.5415 16.1456 45.5183 16.3223Z" fill="#46A358"/>
<path d="M44.9359 20.978C44.9888 21.2561 44.9557 21.5277 44.8664 21.7927C44.7307 22.1918 45.3727 22.3521 45.5084 21.953C45.6375 21.5735 45.6474 21.1841 45.5713 20.7915C45.5382 20.6181 45.3198 20.5233 45.1609 20.5723C44.9723 20.628 44.8995 20.8046 44.9359 20.978Z" fill="#46A358"/>
<path d="M42.9138 18.3378C42.884 18.593 42.8509 18.8482 42.8211 19.1034C42.8013 19.28 42.8708 19.4534 43.0594 19.5025C43.215 19.5418 43.44 19.4436 43.4632 19.2669C43.493 19.0117 43.5261 18.7566 43.5559 18.5014C43.5757 18.3247 43.5062 18.1513 43.3176 18.1022C43.1587 18.063 42.9337 18.1611 42.9138 18.3378Z" fill="#46A358"/>
<path d="M47.4214 18.8579C47.5008 19.2211 47.5769 19.5842 47.6563 19.9441C47.7457 20.3564 48.3811 20.1666 48.2918 19.7576C48.2123 19.3945 48.1362 19.0313 48.0568 18.6714C47.9674 18.2592 47.3353 18.4457 47.4214 18.8579Z" fill="#46A358"/>
<path d="M47.8548 23.6673C47.8614 24.0305 47.8713 24.3936 47.878 24.7568C47.8879 25.1788 48.5498 25.1658 48.5399 24.7437C48.5332 24.3806 48.5233 24.0174 48.5167 23.6542C48.5101 23.2322 47.8482 23.2453 47.8548 23.6673Z" fill="#46A358"/>
<path d="M47.0737 28.4637C47.1167 28.7189 47.1564 28.9708 47.1995 29.226C47.2292 29.3994 47.4543 29.491 47.6098 29.4452C47.7985 29.3896 47.8614 29.2129 47.8316 29.0395C47.7886 28.7843 47.7488 28.5324 47.7058 28.2772C47.676 28.1038 47.451 28.0122 47.2954 28.058C47.1068 28.1103 47.0439 28.287 47.0737 28.4637Z" fill="#46A358"/>
<path d="M44.3733 26.0295C44.3766 26.2487 44.3833 26.4647 44.3866 26.6839C44.3965 27.1059 45.0584 27.0928 45.0485 26.6708C45.0452 26.4516 45.0386 26.2356 45.0352 26.0164C45.0286 25.5944 44.3667 25.6075 44.3733 26.0295Z" fill="#46A358"/>
<path d="M42.5496 23.2289C42.5728 23.5004 42.5463 23.7556 42.4669 24.0174C42.3444 24.423 42.9865 24.5801 43.1089 24.1777C43.2049 23.8669 43.238 23.5397 43.2115 23.2158C43.1751 22.8003 42.5132 22.8101 42.5496 23.2289Z" fill="#46A358"/>
<path d="M43.3804 30.7604C43.3473 31.0156 43.3175 31.2708 43.2844 31.526C43.2613 31.7026 43.3341 31.876 43.5227 31.9251C43.6783 31.9644 43.9033 31.8662 43.9265 31.6895C43.9596 31.4343 43.9894 31.1792 44.0225 30.924C44.0456 30.7473 43.9728 30.5739 43.7842 30.5248C43.6253 30.4856 43.4036 30.5837 43.3804 30.7604Z" fill="#46A358"/>
<path d="M46.756 34.4672C46.799 34.6832 46.8387 34.9024 46.8818 35.1183C46.9149 35.2917 47.1333 35.3866 47.2921 35.3375C47.4775 35.2819 47.547 35.1052 47.5139 34.9318C47.4709 34.7159 47.4311 34.4967 47.3881 34.2807C47.355 34.1073 47.1366 34.0125 46.9777 34.0615C46.7924 34.1172 46.7229 34.2938 46.756 34.4672Z" fill="#46A358"/>
<path d="M44.9657 38.2133C45.0452 38.5764 45.1279 38.9363 45.2073 39.2995C45.3 39.7117 45.9321 39.5219 45.8428 39.113C45.7633 38.7498 45.6806 38.3899 45.6012 38.0268C45.5085 37.6145 44.8731 37.801 44.9657 38.2133Z" fill="#46A358"/>
<path d="M48.6591 40.5819C48.5896 40.8371 48.5234 41.0923 48.4539 41.3507C48.3446 41.7597 48.9867 41.92 49.0959 41.511C49.1654 41.2558 49.2316 41.0006 49.3011 40.7422C49.4103 40.3332 48.7683 40.1729 48.6591 40.5819Z" fill="#46A358"/>
<path d="M48.166 12.1871C48.2091 12.4423 48.2521 12.6942 48.2951 12.9494C48.3249 13.1228 48.5499 13.2144 48.7055 13.1686C48.8941 13.113 48.957 12.9363 48.9272 12.7629C48.8842 12.5077 48.8412 12.2558 48.7981 12.0006C48.7684 11.8272 48.5433 11.7356 48.3878 11.7814C48.2024 11.837 48.1362 12.0137 48.166 12.1871Z" fill="#46A358"/>
<path d="M48.2454 16.679C48.2918 17.0061 48.3381 17.33 48.3844 17.6572C48.4109 17.8306 48.5267 17.9811 48.722 17.9778C48.8842 17.9746 49.0695 17.8208 49.0463 17.6441C49 17.317 48.9537 16.9931 48.9073 16.6659C48.8809 16.4925 48.765 16.342 48.5698 16.3453C48.4076 16.3485 48.2189 16.5056 48.2454 16.679Z" fill="#46A358"/>
<path d="M53.2097 20.3106C53.1204 20.8243 53.0277 21.3347 52.9384 21.8483C52.8656 22.2605 53.5076 22.4241 53.5804 22.0086C53.6698 21.495 53.7624 20.9846 53.8518 20.4709C53.9246 20.0587 53.2826 19.8951 53.2097 20.3106Z" fill="#46A358"/>
<path d="M54.4971 19.388C54.5037 19.6432 54.507 19.8984 54.5137 20.1503C54.5236 20.5724 55.1855 20.5593 55.1756 20.1373C55.1689 19.8821 55.1656 19.6269 55.159 19.3749C55.1491 18.9529 54.4905 18.966 54.4971 19.388Z" fill="#46A358"/>
<path d="M54.1364 22.8854C54.0735 23.4318 54.0139 23.9781 53.9511 24.5245C53.9047 24.9433 54.5666 24.9237 54.613 24.5114C54.6758 23.9651 54.7354 23.4187 54.7983 22.8723C54.8446 22.4568 54.1827 22.4732 54.1364 22.8854Z" fill="#46A358"/>
<path d="M52.422 23.844C52.2796 24.1384 52.1406 24.4329 51.9983 24.724C51.8163 25.1036 52.3955 25.4242 52.5775 25.0414C52.7198 24.7469 52.8588 24.4525 53.0011 24.1613C53.1832 23.7818 52.604 23.4612 52.422 23.844Z" fill="#46A358"/>
<path d="M51.4258 22.0937C51.3398 22.3162 51.257 22.5354 51.171 22.7579C51.1081 22.9247 51.2504 23.1145 51.4093 23.157C51.5979 23.2061 51.7468 23.085 51.813 22.9215C51.8991 22.699 51.9818 22.4798 52.0679 22.2573C52.1307 22.0904 51.9884 21.9007 51.8296 21.8582C51.6409 21.8091 51.492 21.9269 51.4258 22.0937Z" fill="#46A358"/>
<path d="M53.3155 26.3926C53.3023 26.6838 53.2924 26.975 53.2791 27.2662C53.2626 27.6882 53.9245 27.6719 53.941 27.2531C53.9543 26.9619 53.9642 26.6707 53.9774 26.3795C53.994 25.9575 53.3321 25.9739 53.3155 26.3926Z" fill="#46A358"/>
<path d="M54.6724 28.1103C54.6592 28.3818 54.646 28.6566 54.6327 28.9282C54.6228 29.1048 54.8015 29.2521 54.9703 29.2488C55.1589 29.2455 55.2847 29.0918 55.2946 28.9151C55.3079 28.6435 55.3211 28.3687 55.3343 28.0972C55.3443 27.9205 55.1656 27.7733 54.9968 27.7765C54.8081 27.7798 54.6824 27.9336 54.6724 28.1103Z" fill="#46A358"/>
<path d="M54.1497 31.0351C54.1199 31.2707 54.0868 31.5095 54.057 31.7451C54.0339 31.9185 54.11 32.0952 54.2953 32.1442C54.4542 32.1835 54.6759 32.0853 54.6991 31.9087C54.7288 31.6731 54.7619 31.4343 54.7917 31.1987C54.8149 31.0253 54.7388 30.8487 54.5534 30.7996C54.3946 30.757 54.1728 30.8585 54.1497 31.0351Z" fill="#46A358"/>
<path d="M51.6808 29.0133C51.6477 29.2129 51.6146 29.4158 51.5815 29.6153C51.5517 29.7887 51.6377 29.9654 51.8198 30.0145C51.9819 30.0537 52.1937 29.9523 52.2235 29.7789C52.2566 29.5793 52.2897 29.3765 52.3228 29.1769C52.3526 29.0035 52.2665 28.8269 52.0845 28.7778C51.9224 28.7353 51.7105 28.8367 51.6808 29.0133Z" fill="#46A358"/>
<path d="M52.1573 34.2152C52.1606 34.3592 52.164 34.5064 52.1673 34.6504C52.1772 35.0724 52.8391 35.0593 52.8292 34.6373C52.8259 34.4933 52.8225 34.3461 52.8192 34.2022C52.8093 33.7801 52.1474 33.7932 52.1573 34.2152Z" fill="#46A358"/>
<path d="M54.2953 36.1357C54.2986 36.2796 54.3019 36.4268 54.3052 36.5708C54.3151 36.9928 54.977 36.9797 54.9671 36.5577C54.9638 36.4137 54.9605 36.2665 54.9572 36.1226C54.9473 35.7005 54.2853 35.7136 54.2953 36.1357Z" fill="#46A358"/>
<path d="M52.3889 40.1011C52.4154 40.3563 52.3889 40.5918 52.3061 40.8339C52.2499 41.0008 52.3823 41.1905 52.5444 41.2331C52.7298 41.2789 52.8886 41.1644 52.9482 40.9975C53.0475 40.7063 53.0839 40.3955 53.0508 40.0912C53.0309 39.9146 52.9019 39.7674 52.7132 39.7706C52.5444 39.7706 52.369 39.9244 52.3889 40.1011Z" fill="#46A358"/>
<path d="M53.2063 18.6518C53.1203 18.8186 53.0309 18.9855 52.9449 19.1491C52.7496 19.522 53.3254 19.8427 53.524 19.4664C53.6101 19.2996 53.6994 19.1327 53.7855 18.9691C53.9807 18.5962 53.4049 18.2755 53.2063 18.6518Z" fill="#46A358"/>
<path d="M36.0399 12.4324C36.0995 12.776 36.1624 13.1228 36.2219 13.4663C36.2517 13.6397 36.4768 13.7313 36.6323 13.6855C36.821 13.6299 36.8871 13.4532 36.854 13.2798C36.7945 12.9363 36.7316 12.5895 36.672 12.2459C36.6422 12.0725 36.4172 11.9809 36.2616 12.0267C36.073 12.0824 36.0068 12.259 36.0399 12.4324Z" fill="#46A358"/>
<path d="M37.0262 14.595C37.1785 14.9549 37.334 15.3181 37.4863 15.678C37.5558 15.8416 37.7146 15.9528 37.8966 15.8972C38.0522 15.8514 38.1879 15.6551 38.1184 15.4915C37.9661 15.1316 37.8106 14.7684 37.6584 14.4086C37.5889 14.245 37.43 14.1337 37.248 14.1894C37.0924 14.2352 36.9567 14.4315 37.0262 14.595Z" fill="#46A358"/>
<path d="M36.1226 15.8023C36.0465 16.3061 36.0531 16.787 36.1424 17.2843C36.2153 17.6966 36.8474 17.5101 36.7779 17.0978C36.7117 16.7249 36.7117 16.3388 36.7679 15.9626C36.8242 15.5503 36.1822 15.3868 36.1226 15.8023Z" fill="#46A358"/>
<path d="M37.3803 17.6932C37.4928 18.0008 37.602 18.3116 37.7145 18.6191C37.8568 19.015 38.4922 18.8318 38.3499 18.4326C38.2374 18.1251 38.1282 17.8143 38.0157 17.5067C37.8734 17.1109 37.2379 17.2941 37.3803 17.6932Z" fill="#46A358"/>
<path d="M35.8414 19.0019C35.848 19.3651 35.8579 19.7282 35.8645 20.0914C35.8745 20.5134 36.5364 20.5004 36.5264 20.0783C36.5198 19.7152 36.5099 19.352 36.5033 18.9888C36.4966 18.5668 35.8347 18.5799 35.8414 19.0019Z" fill="#46A358"/>
<path d="M37.0824 20.2321C37.089 20.5593 37.0956 20.8864 37.1022 21.2136C37.1122 21.6356 37.7741 21.6226 37.7641 21.2005C37.7575 20.8733 37.7509 20.5462 37.7443 20.219C37.7344 19.797 37.0725 19.81 37.0824 20.2321Z" fill="#46A358"/>
<path d="M38.9323 20.8799C39.0647 21.2594 39.2004 21.6389 39.3328 22.0184C39.4718 22.4143 40.1072 22.2311 39.9682 21.8319C39.8358 21.4524 39.7002 21.0729 39.5678 20.6934C39.4288 20.2975 38.7933 20.4807 38.9323 20.8799Z" fill="#46A358"/>
<path d="M39.6573 24.1384C39.697 24.3379 39.74 24.5375 39.7798 24.7371C39.8162 24.9105 40.0313 25.0054 40.1901 24.9563C40.3755 24.9007 40.4483 24.724 40.4119 24.5506C40.3722 24.351 40.3291 24.1515 40.2894 23.9519C40.253 23.7785 40.0379 23.6836 39.879 23.7327C39.697 23.785 39.6209 23.965 39.6573 24.1384Z" fill="#46A358"/>
<path d="M37.8402 24.1744C37.9494 24.4819 38.0289 24.796 38.0653 25.1199C38.0851 25.2965 38.2142 25.4438 38.4028 25.4405C38.5683 25.4372 38.747 25.2835 38.7272 25.1068C38.6841 24.724 38.6047 24.351 38.4756 23.9879C38.3333 23.592 37.6979 23.7752 37.8402 24.1744Z" fill="#46A358"/>
<path d="M36.1424 22.869C36.149 23.1242 36.1523 23.3794 36.1589 23.6313C36.1689 24.0533 36.8308 24.0403 36.8208 23.6182C36.8142 23.363 36.8109 23.1078 36.8043 22.8559C36.7944 22.4339 36.1358 22.4469 36.1424 22.869Z" fill="#46A358"/>
<path d="M36.9402 26.7786C36.9667 27.1058 37.0295 27.4264 37.1388 27.734C37.2811 28.1298 37.9165 27.9466 37.7742 27.5475C37.6815 27.2923 37.6219 27.0338 37.6021 26.7656C37.5723 26.3468 36.9104 26.3599 36.9402 26.7786Z" fill="#46A358"/>
<path d="M38.3896 29.5629C38.4491 29.7625 38.5087 29.9621 38.5683 30.1584C38.6874 30.5608 39.3228 30.3776 39.2037 29.9719C39.1441 29.7723 39.0846 29.576 39.025 29.3765C38.9058 28.974 38.2704 29.1573 38.3896 29.5629Z" fill="#46A358"/>
<path d="M39.1673 27.0372C39.2071 27.1812 39.2468 27.3251 39.2865 27.4723C39.399 27.878 40.0344 27.6915 39.9219 27.2859C39.8822 27.1419 39.8425 26.9979 39.8028 26.8507C39.6903 26.445 39.0548 26.6315 39.1673 27.0372Z" fill="#46A358"/>
<path d="M37.291 32.4779C37.3737 32.8018 37.4531 33.129 37.5359 33.4529C37.6385 33.8618 38.2739 33.6753 38.1713 33.2664C38.0885 32.9425 38.0091 32.6153 37.9264 32.2914C37.8238 31.8824 37.1884 32.0689 37.291 32.4779Z" fill="#46A358"/>
<path d="M38.9357 37.2416C38.9953 37.3855 39.0515 37.5295 39.1111 37.6735C39.1773 37.837 39.3395 37.9483 39.5215 37.8927C39.6803 37.8468 39.8094 37.6505 39.7432 37.487C39.6837 37.343 39.6274 37.1991 39.5678 37.0551C39.5016 36.8915 39.3395 36.7803 39.1574 36.8359C38.9986 36.8817 38.8695 37.078 38.9357 37.2416Z" fill="#46A358"/>
<path d="M60.4806 23.6836C60.3052 24.0337 60.1265 24.3805 59.9511 24.7306C59.7591 25.1068 60.3383 25.4275 60.5302 25.0479C60.7056 24.6979 60.8843 24.3511 61.0598 24.001C61.2517 23.6247 60.6725 23.3074 60.4806 23.6836Z" fill="#46A358"/>
<path d="M61.4073 24.5049C61.3246 24.8353 61.2385 25.1625 61.1558 25.4929C61.0499 25.9019 61.6919 26.0622 61.7978 25.6532C61.8806 25.3228 61.9666 24.9956 62.0494 24.6652C62.152 24.2595 61.5099 24.0992 61.4073 24.5049Z" fill="#46A358"/>
<path d="M60.5931 27.6326C60.5104 27.9074 60.4277 28.1823 60.3416 28.4571C60.2192 28.8628 60.8612 29.0198 60.9837 28.6174C61.0664 28.3426 61.1491 28.0678 61.2352 27.7929C61.3543 27.3905 60.7123 27.2302 60.5931 27.6326Z" fill="#46A358"/>
<path d="M60.0371 26.3076C59.9676 26.4352 59.8948 26.566 59.8253 26.6936C59.6201 27.0633 60.1993 27.384 60.4045 27.011C60.474 26.8834 60.5468 26.7525 60.6163 26.6249C60.8215 26.2585 60.2423 25.9379 60.0371 26.3076Z" fill="#46A358"/>
<path d="M61.672 26.4646C61.6422 26.7198 61.6124 26.975 61.5826 27.2302C61.5628 27.4069 61.6323 27.5803 61.8209 27.6293C61.9764 27.6686 62.2015 27.5704 62.2247 27.3938C62.2545 27.1386 62.2842 26.8834 62.314 26.6282C62.3339 26.4515 62.2644 26.2781 62.0757 26.2291C61.9169 26.1898 61.6918 26.2879 61.672 26.4646Z" fill="#46A358"/>
<path d="M58.5546 28.1626C58.4884 28.372 58.3891 28.5617 58.27 28.745C58.0383 29.0983 58.6175 29.4157 58.8492 29.0623C59.0014 28.8333 59.1139 28.5846 59.1966 28.3229C59.2496 28.1561 59.1238 27.9663 58.9584 27.9238C58.773 27.8812 58.6076 27.9925 58.5546 28.1626Z" fill="#46A358"/>
<path d="M58.5346 30.9763C58.3923 31.2086 58.3228 31.4736 58.3361 31.7452C58.3559 32.1639 59.0178 32.1541 58.998 31.7321C58.9914 31.5685 59.0244 31.4343 59.1138 31.2969C59.3355 30.9338 58.7564 30.6164 58.5346 30.9763Z" fill="#46A358"/>
<path d="M60.259 30.2565C60.1928 30.4757 60.1266 30.6982 60.0637 30.9174C59.9446 31.3231 60.5866 31.4801 60.7058 31.0777C60.772 30.8585 60.8382 30.636 60.901 30.4168C61.0202 30.0111 60.3781 29.8541 60.259 30.2565Z" fill="#46A358"/>
<path d="M59.7128 33.4823C59.6433 33.7211 59.5771 33.9567 59.5076 34.1955C59.3917 34.6012 60.0338 34.7615 60.1496 34.3558C60.2191 34.117 60.2853 33.8814 60.3548 33.6426C60.4706 33.2402 59.8286 33.0799 59.7128 33.4823Z" fill="#46A358"/>
<path d="M61.8112 28.8366C61.7946 28.9839 61.7814 29.1278 61.7648 29.275C61.745 29.4517 61.9402 29.5989 62.1024 29.5957C62.301 29.5924 62.4069 29.4386 62.4267 29.2619C62.4433 29.1147 62.4565 28.9708 62.4731 28.8235C62.4929 28.6469 62.2977 28.4997 62.1355 28.5029C61.9369 28.5095 61.831 28.66 61.8112 28.8366Z" fill="#46A358"/>
<path d="M57.6542 35.3799C57.6211 35.4912 57.5847 35.5991 57.5516 35.7104C57.4259 36.1128 58.0679 36.2731 58.1937 35.8707C58.2268 35.7595 58.2632 35.6515 58.2963 35.5402C58.422 35.1378 57.78 34.9808 57.6542 35.3799Z" fill="#46A358"/>
<path d="M57.1216 38.7204C57.0521 38.9036 56.9792 39.0868 56.9097 39.27C56.8469 39.4336 56.9892 39.6266 57.148 39.6691C57.34 39.7182 57.4856 39.5972 57.5518 39.4336C57.6213 39.2504 57.6941 39.0672 57.7636 38.8839C57.8265 38.7204 57.6842 38.5273 57.5253 38.4848C57.3334 38.4357 57.1877 38.5535 57.1216 38.7204Z" fill="#46A358"/>
<path d="M59.7262 37.3888C59.7295 37.4968 59.7295 37.608 59.7328 37.716C59.7427 38.138 60.4046 38.1249 60.3947 37.7029C60.3914 37.5949 60.3914 37.4837 60.3881 37.3757C60.3782 36.9537 59.7163 36.9668 59.7262 37.3888Z" fill="#46A358"/>
<path d="M58.4916 41.7237C58.475 41.8709 58.4618 42.0148 58.4452 42.1621C58.4254 42.3387 58.6207 42.486 58.7828 42.4827C58.9814 42.4794 59.0873 42.3257 59.1072 42.149C59.1237 42.0018 59.1369 41.8578 59.1535 41.7106C59.1733 41.5339 58.9781 41.3867 58.8159 41.3899C58.6207 41.3932 58.5114 41.547 58.4916 41.7237Z" fill="#46A358"/>
<path d="M28.2591 28.0808C28.3154 28.2608 28.375 28.444 28.4312 28.6239C28.557 29.0263 29.1924 28.8398 29.0667 28.4374C29.0104 28.2575 28.9508 28.0743 28.8946 27.8943C28.7655 27.4919 28.1301 27.6784 28.2591 28.0808Z" fill="#46A358"/>
<path d="M28.941 27.3382C29.1628 27.6097 29.3878 27.8813 29.6095 28.1495C29.7221 28.287 29.9637 28.2575 30.0762 28.1397C30.2119 27.999 30.1788 27.8158 30.0663 27.6784C29.8445 27.4069 29.6195 27.1353 29.3977 26.867C29.2852 26.7296 29.0436 26.7591 28.9311 26.8769C28.7954 27.0143 28.8285 27.2008 28.941 27.3382Z" fill="#46A358"/>
<path d="M30.2117 29.6415C30.4037 29.9098 30.5956 30.178 30.7843 30.443C31.0292 30.7866 31.5951 30.4463 31.3502 30.1028C31.1583 29.8345 30.9663 29.5662 30.7777 29.3012C30.5294 28.9577 29.9635 29.2947 30.2117 29.6415Z" fill="#46A358"/>
<path d="M29.3976 30.4234C29.5498 30.6753 29.7021 30.9272 29.8543 31.1791C30.0728 31.539 30.6387 31.1987 30.4203 30.8389C30.268 30.5869 30.1158 30.335 29.9635 30.0831C29.7418 29.7199 29.1792 30.0602 29.3976 30.4234Z" fill="#46A358"/>
<path d="M30.8803 33.1225C31.0722 33.4628 31.2675 33.803 31.4594 34.1433C31.6679 34.5097 32.2339 34.1694 32.0254 33.803C31.8334 33.4628 31.6382 33.1225 31.4462 32.7823C31.2344 32.4158 30.6718 32.7561 30.8803 33.1225Z" fill="#46A358"/>
<path d="M31.4661 32.1311C31.5984 32.3274 31.7308 32.527 31.8632 32.7233C32.0982 33.0734 32.6641 32.7331 32.4291 32.383C32.2967 32.1867 32.1644 31.9872 32.032 31.7909C31.7937 31.4408 31.2278 31.7778 31.4661 32.1311Z" fill="#46A358"/>
<path d="M31.7739 30.7572C31.8832 30.9894 32.0685 31.1694 32.2902 31.3003C32.6609 31.5129 32.9819 30.9404 32.6112 30.7277C32.4789 30.6525 32.3994 30.551 32.3366 30.4169C32.2604 30.2566 32.0222 30.2239 31.8798 30.3089C31.7177 30.4104 31.6978 30.5968 31.7739 30.7572Z" fill="#46A358"/>
<path d="M29.2917 32.4747C29.3348 32.6546 29.3745 32.8346 29.4175 33.0178C29.4572 33.1912 29.6657 33.286 29.8279 33.237C30.0099 33.1846 30.0893 33.0014 30.0496 32.8313C30.0066 32.6513 29.9669 32.4714 29.9239 32.2882C29.8841 32.1148 29.6756 32.0199 29.5135 32.069C29.3315 32.1213 29.252 32.3045 29.2917 32.4747Z" fill="#46A358"/>
<path d="M31.3802 35.8935C31.5325 36.2011 31.6847 36.5086 31.8336 36.8129C31.9131 36.9732 32.148 37.0059 32.2903 36.9208C32.4558 36.8227 32.479 36.6297 32.3996 36.4694C32.2473 36.1618 32.0951 35.8543 31.9462 35.55C31.8667 35.3897 31.6317 35.357 31.4894 35.442C31.324 35.5435 31.3008 35.7365 31.3802 35.8935Z" fill="#46A358"/>
<path d="M33.8523 34.9678C33.9682 35.1837 34.0807 35.3997 34.1965 35.6156C34.3951 35.9885 34.9577 35.645 34.7625 35.2753C34.6466 35.0594 34.5341 34.8435 34.4183 34.6275C34.2164 34.2546 33.6538 34.5948 33.8523 34.9678Z" fill="#46A358"/>
<path d="M34.6068 39.6463C34.7028 39.8262 34.7988 40.0061 34.8981 40.1828C35.0999 40.5558 35.6626 40.2123 35.464 39.8426C35.368 39.6626 35.272 39.4827 35.1727 39.306C34.9709 38.933 34.4049 39.2733 34.6068 39.6463Z" fill="#46A358"/>
<path d="M35.7818 37.9875C35.8943 38.1675 36.0101 38.3474 36.1227 38.5273C36.3477 38.884 36.9136 38.5437 36.6886 38.1871C36.5761 38.0071 36.4602 37.8272 36.3477 37.6473C36.1193 37.2907 35.5534 37.6309 35.7818 37.9875Z" fill="#46A358"/>
<path d="M37.0989 43.0324C37.1916 43.196 37.2875 43.3563 37.3802 43.5199C37.592 43.8863 38.1546 43.5428 37.9461 43.1796C37.8535 43.0161 37.7575 42.8558 37.6648 42.6922C37.453 42.3257 36.8871 42.666 37.0989 43.0324Z" fill="#46A358"/>
<path d="M26.4258 41.0106C26.6475 41.1153 26.8726 41.2167 27.0943 41.3214C27.4782 41.5014 27.8025 40.9288 27.4153 40.7489C27.1936 40.6442 26.9685 40.5428 26.7468 40.4381C26.3662 40.2614 26.0419 40.8307 26.4258 41.0106Z" fill="#46A358"/>
<path d="M28.5339 41.9625C28.7789 42.1359 29.0238 42.3126 29.2654 42.486C29.411 42.5906 29.636 42.5023 29.7154 42.3584C29.8114 42.1882 29.732 42.0181 29.5864 41.9134C29.3415 41.74 29.0966 41.5633 28.855 41.3899C28.7094 41.2852 28.4843 41.3736 28.4049 41.5175C28.3122 41.6877 28.3916 41.8578 28.5339 41.9625Z" fill="#46A358"/>
<path d="M28.2095 40.9615C28.3783 40.9975 28.5339 41.0531 28.6861 41.1381C29.0601 41.341 29.3811 40.7684 29.0071 40.5656C28.8085 40.4576 28.5934 40.3758 28.3717 40.3268C27.958 40.2352 27.7925 40.8699 28.2095 40.9615Z" fill="#46A358"/>
<path d="M30.1491 42.3584C30.298 42.4631 30.4469 42.5711 30.5959 42.6758C30.7415 42.7772 30.9665 42.6922 31.046 42.5482C31.1419 42.3781 31.0625 42.2047 30.9169 42.1032C30.768 41.9986 30.619 41.8906 30.4701 41.7859C30.3245 41.6845 30.0994 41.7695 30.02 41.9135C29.9273 42.0836 30.0035 42.2537 30.1491 42.3584Z" fill="#46A358"/>
<path d="M30.1027 43.3367C30.1788 43.4447 30.2549 43.5526 30.331 43.6606C30.5726 44.0041 31.1385 43.6672 30.8969 43.3204C30.8208 43.2124 30.7447 43.1044 30.6686 42.9965C30.427 42.6497 29.8577 42.9899 30.1027 43.3367Z" fill="#46A358"/>
<path d="M31.6018 43.8634C31.7507 43.9877 31.8996 44.1121 32.0519 44.2364C32.1876 44.3509 32.3894 44.3607 32.5185 44.2266C32.6376 44.1055 32.6476 43.8765 32.5086 43.7653C32.3596 43.6409 32.2107 43.5166 32.0585 43.3923C31.9228 43.2778 31.7209 43.268 31.5918 43.4021C31.4727 43.5199 31.4628 43.7489 31.6018 43.8634Z" fill="#46A358"/>
<path d="M65.7626 34.2251C65.4085 34.1596 65.0577 34.1662 64.7069 34.2545C64.2932 34.3592 64.4819 34.9874 64.8955 34.8827C65.1272 34.8238 65.3622 34.814 65.5972 34.8598C66.0175 34.9383 66.1796 34.3036 65.7626 34.2251Z" fill="#46A358"/>
<path d="M63.4791 34.9023C63.3534 34.9972 63.2243 35.0888 63.0986 35.1836C62.9562 35.2883 62.8901 35.4716 62.9893 35.6351C63.0754 35.7758 63.3004 35.8511 63.4461 35.7431C63.5718 35.6482 63.7009 35.5566 63.8266 35.4617C63.969 35.357 64.0351 35.1738 63.9359 35.0103C63.8498 34.8696 63.6248 34.7976 63.4791 34.9023Z" fill="#46A358"/>
<path d="M63.585 34.5817C64.0119 34.5719 63.9986 33.9175 63.5717 33.9274C63.1448 33.9372 63.158 34.5915 63.585 34.5817Z" fill="#46A358"/>
</g>
<g clip-path="url(#clip1_11_1590)">
<path d="M30.3859 47.6164C28.0447 53.631 26.3971 59.9163 25.8568 66.3709C25.3966 71.8879 25.5367 77.8381 28.5583 82.6511C28.9051 83.2028 29.7589 82.6748 29.412 82.1197C26.3804 77.2932 26.3871 71.238 26.9141 65.7244C27.501 59.5812 29.1285 53.5938 31.3564 47.8669C31.5898 47.261 30.6193 47.0173 30.3859 47.6164Z" fill="#727272"/>
<path d="M60.7883 46.6855C66.1144 50.7471 66.121 58.1934 66.6947 64.3061C66.9848 67.3895 67.385 70.4831 67.5251 73.5801C67.6552 76.4097 67.4217 79.4153 65.2139 81.419C64.7337 81.8556 65.4574 82.5562 65.9343 82.123C67.8786 80.3596 68.4789 77.8346 68.5456 75.2724C68.6424 71.6238 68.032 67.9142 67.6919 64.2892C67.0949 57.9192 67.0215 50.1819 61.4786 45.9544C60.9717 45.5652 60.2747 46.2929 60.7883 46.6855Z" fill="#727272"/>
<path d="M28.7582 82.8541C31.583 83.8864 34.4712 84.1437 37.4427 84.3975C40.7311 84.6784 44.0495 85.1015 47.3546 84.9831C50.7096 84.8646 54.0747 84.3806 57.4098 84.015C60.328 83.6935 63.2228 83.2873 65.9443 82.1095C66.5279 81.8556 66.2511 80.8775 65.6574 81.1347C62.836 82.3566 59.8411 82.7356 56.8162 83.0606C53.6679 83.399 50.4995 83.856 47.3345 83.9677C44.2329 84.0794 41.1246 83.6969 38.0364 83.4363C34.9581 83.1723 31.9365 82.9421 29.005 81.8725C28.398 81.6458 28.1579 82.6341 28.7582 82.8541Z" fill="#727272"/>
<path d="M30.6258 48.1851C32.9537 49.1497 35.3316 50.0026 37.8429 50.3039C40.4543 50.6153 43.1157 50.1685 45.7437 50.2362C47.2012 50.2734 48.5118 50.4731 49.9826 50.2599C51.2499 50.0737 52.5173 49.8165 53.7479 49.4611C56.2992 48.7232 58.7705 47.6943 61.2752 46.8075C61.8788 46.5943 61.5987 45.6195 60.9884 45.8327C56.0858 47.5691 51.4901 49.5965 46.1973 49.2479C43.9962 49.1023 41.805 49.4306 39.6105 49.4103C36.6557 49.3799 33.8142 48.4186 31.1061 47.2983C30.5225 47.0546 30.0289 47.938 30.6258 48.1851Z" fill="#727272"/>
<path d="M0.663599 51.2414C6.26652 52.1349 11.4792 54.8257 15.3846 59.0193C19.1633 63.0775 21.2877 68.4253 25.4099 72.1924C25.8868 72.6291 26.5838 71.898 26.1035 71.4614C21.7346 67.4675 19.5501 61.6898 15.3479 57.5368C11.4125 53.6479 6.32322 51.1195 0.910395 50.2564C0.276731 50.1549 0.0266002 51.1398 0.663599 51.2414Z" fill="#727272"/>
<path d="M1.53734 49.4237C6.62333 48.2459 12.0295 48.9465 16.5985 51.5425C20.2438 53.614 23.2353 56.8869 27.5876 57.3337C28.2279 57.398 28.2013 56.3826 27.5676 56.3183C22.685 55.8174 19.1632 51.353 14.7609 49.5185C10.4687 47.7314 5.76288 47.4065 1.25386 48.449C0.62353 48.5945 0.910347 49.5693 1.53734 49.4237Z" fill="#727272"/>
<path d="M0.723598 48.7435C0.340064 49.2782 0.0932688 49.9044 0.0065569 50.5577C-0.0301289 50.8318 0.0865987 51.0992 0.37008 51.1737C0.60687 51.238 0.940378 51.0789 0.977064 50.8047C1.05377 50.2226 1.25721 49.7115 1.59739 49.2342C1.75747 49.0109 1.6174 48.669 1.40395 48.5438C1.14715 48.3982 0.880347 48.5235 0.723598 48.7435Z" fill="#727272"/>
<path d="M64.8103 49.6709C66.8781 45.6533 73.4482 45.1354 77.1568 46.9767C81.1755 48.9736 83.0298 53.8103 81.3823 58.0412C79.9482 61.7271 76.2629 63.5311 73.2314 65.6567C71.954 66.5536 70.5333 67.5622 69.6495 68.8856C68.7257 70.27 68.8457 72.03 67.9319 73.4109C67.5718 73.9559 68.4489 74.4433 68.8057 73.9051C69.3827 73.0352 69.5494 72.1078 69.8062 71.1128C70.1698 69.7217 70.8968 68.8281 71.9407 67.9176C73.7383 66.3505 75.8461 65.2167 77.7604 63.812C81.1488 61.3243 83.5267 57.7907 82.8964 53.3636C82.3194 49.3324 79.1244 45.9985 75.1791 45.264C71.2036 44.5228 65.9642 45.237 63.9332 49.1801C63.6364 49.7555 64.5102 50.2497 64.8103 49.6709Z" fill="#727272"/>
<path d="M65.8242 52.2263C67.2082 49.4238 70.3599 48.6995 73.2214 48.9228C75.129 49.0718 76.3063 49.8333 77.3035 51.4952C78.4074 53.3297 78.3541 54.8832 77.7304 56.8396C76.7499 59.9061 74.9823 61.3277 72.2642 62.7661C70.4833 63.7071 67.7652 64.9391 67.0548 67.0207C66.8447 67.6401 67.8152 67.8838 68.0253 67.2711C68.6723 65.3757 71.8473 64.1437 73.4815 63.2671C74.8989 62.5089 76.2263 61.6729 77.1834 60.3359C78.6976 58.2239 79.9416 54.7749 78.8443 52.2737C77.5036 49.2139 75.4525 47.8567 72.1775 47.8804C69.2627 47.9007 66.3245 48.9567 64.9537 51.7321C64.6636 52.3143 65.5374 52.8084 65.8242 52.2263Z" fill="#727272"/>
<path d="M47.3078 59.571C44.3663 60.0144 41.8817 62.2348 41.5849 65.3385C41.3014 68.2967 43.2691 72.1485 46.6108 71.9217C49.6591 71.7152 52.3672 68.7164 52.6473 65.7176C52.9575 62.4175 50.5195 59.5406 47.2078 59.6861C46.5641 59.7132 46.5841 60.7286 47.2278 60.7015C50.1327 60.5729 52.1337 63.2671 51.5901 66.1035C51.1499 68.3983 48.9687 70.7134 46.5908 70.9097C43.6693 71.15 42.1785 67.3964 42.6421 64.9594C43.0856 62.624 45.0567 60.9317 47.3279 60.5898C47.9549 60.4917 47.9448 59.4729 47.3078 59.571Z" fill="#727272"/>
<path d="M47.8815 60.0144C47.7048 57.8617 51.0365 54.5888 52.7041 57.0799C53.221 57.8516 53.7213 59.2224 53.5078 60.1735C53.2777 61.1923 52.2938 61.9538 51.5401 62.58C51.0432 62.9929 51.7702 63.6935 52.2605 63.284C53.4478 62.299 54.6684 61.1178 54.555 59.4288C54.4616 58.0479 53.7079 56.2269 52.5206 55.4688C49.986 53.8475 46.6776 57.5605 46.881 60.0381C46.9344 60.6846 47.9349 60.6676 47.8815 60.0144Z" fill="#727272"/>
<path d="M52.5274 63.5108C53.7814 62.756 57.0264 62.9557 56.6896 65.1355C56.3694 67.2136 53.718 67.2983 52.1472 67.3186C51.5035 67.3253 51.5235 68.3407 52.1672 68.334C54.3717 68.3069 58.227 67.6029 57.6767 64.4382C57.2432 61.9539 53.788 61.568 52.0038 62.6443C51.4501 62.9794 51.9704 63.8459 52.5274 63.5108Z" fill="#727272"/>
<path d="M51.52 68.52C53.2743 69.3053 55.2487 71.6373 53.5811 73.5192C51.6301 75.7192 48.8086 73.5429 48.0883 71.4207C47.8781 70.8047 46.9176 71.089 47.1278 71.7118C48.0616 74.4534 51.4267 76.8226 54.0214 74.4974C56.5427 72.2398 54.5383 68.7671 52.007 67.6299C51.4233 67.3692 50.9331 68.256 51.52 68.52Z" fill="#727272"/>
<path d="M46.6476 71.6745C46.7377 73.3804 46.2674 75.9189 44.0063 75.6143C42.9791 75.4755 42.1886 74.538 42.2353 73.4752C42.2754 72.5207 42.939 71.4071 43.3026 70.5339C43.5494 69.9382 42.6789 69.4373 42.4288 70.0397C41.8985 71.3191 40.978 72.8118 41.3182 74.257C41.595 75.4281 42.5055 76.3589 43.6728 76.5924C46.651 77.1915 47.7749 74.0743 47.6482 71.6508C47.6148 71.001 46.6143 71.0179 46.6476 71.6745Z" fill="#727272"/>
<path d="M43.1656 69.2715C41.3013 70.0533 38.4232 69.8536 37.7728 67.481C37.4894 66.4385 37.8062 65.2065 38.77 64.6412C39.7072 64.0929 40.9178 64.2385 41.9383 64.3637C42.5687 64.4415 42.8221 63.4566 42.1851 63.3787C40.7711 63.2061 39.1669 63.0538 37.9496 63.9745C36.9391 64.7394 36.5288 66.0797 36.7223 67.3151C37.2225 70.5069 40.9011 71.309 43.4491 70.2429C44.0428 69.9992 43.7626 69.021 43.1656 69.2715Z" fill="#727272"/>
<path d="M42.5454 63.4938C40.8612 62.58 39.9808 59.2224 41.4582 57.7703C43.3992 55.8648 45.7838 58.5657 46.9577 60.0279C47.3646 60.5322 48.0516 59.7978 47.6514 59.2968C46.1173 57.3879 42.7989 54.4669 40.5311 57.2186C38.8635 59.2461 39.8607 63.1892 42.0585 64.384C42.6255 64.692 43.1157 63.8052 42.5454 63.4938Z" fill="#727272"/>
<path d="M44.153 70.9571C43.3626 71.7288 42.849 73.8171 44.0629 74.45C45.517 75.2116 46.1607 72.6223 46.3541 71.6881C46.4408 71.2617 45.7938 71.0958 45.7071 71.5223C45.6204 71.9454 45.5104 72.3617 45.3569 72.7679C45.2802 72.9676 45.1969 73.1672 45.0968 73.3568C44.9434 73.6513 44.8533 73.8408 44.4998 73.8002C43.546 73.6817 44.1997 71.8506 44.6366 71.4275C44.9434 71.1229 44.4631 70.6558 44.153 70.9571Z" fill="#727272"/>
<path d="M48.4519 71.0044C48.2818 71.9792 49.369 72.7441 50.1461 73.0927C50.9331 73.4448 52.0304 73.5632 52.7674 73.0115C53.4711 72.4835 53.3611 71.5256 53.0576 70.7946C52.644 69.7995 51.7936 69.1293 50.8098 68.7773C50.4029 68.6318 50.2428 69.2918 50.6463 69.4339C51.24 69.6472 51.7736 70.0059 52.1504 70.5272C52.2805 70.7099 52.3806 70.9029 52.4639 71.1127C52.6574 71.6069 52.6874 71.8303 52.3439 72.2601C52.0504 72.6257 51.897 72.7103 51.4501 72.7137C51.1699 72.7137 50.8798 72.6561 50.6163 72.5614C50.2128 72.4158 48.9955 71.7727 49.0989 71.177C49.1722 70.7438 48.5286 70.5746 48.4519 71.0044Z" fill="#727272"/>
<path d="M52.3206 66.6248C53.1577 66.838 53.9914 66.4725 54.6951 66.0223C55.2087 65.694 55.8857 65.0949 55.8257 64.401C55.7757 63.8223 55.2087 63.5481 54.7018 63.4872C53.828 63.3789 52.9709 63.7613 52.2605 64.242C51.9037 64.4823 52.2505 65.0644 52.6074 64.8207C52.9776 64.5669 53.3711 64.3435 53.808 64.2318C54.2115 64.1269 55.3855 63.9577 55.0286 64.8072C54.7151 65.562 53.1943 66.1475 52.484 65.9681C52.0671 65.8632 51.9037 66.5198 52.3206 66.6248Z" fill="#727272"/>
<path d="M49.209 60.3056C49.1556 59.7911 49.2624 59.28 49.6292 58.9009C49.896 58.62 50.543 58.2477 50.9232 58.4643C51.2601 58.6572 51.2367 59.4696 51.2367 59.8453C51.2334 60.3834 51.12 60.8945 50.9432 61.3988C50.7998 61.8084 51.4468 61.9708 51.5903 61.5647C51.8771 60.7456 51.9771 59.8859 51.8404 59.0228C51.747 58.4305 51.647 57.8415 50.9899 57.7535C49.5358 57.5538 48.4053 58.9246 48.5487 60.3225C48.5853 60.749 49.2524 60.7388 49.209 60.3056Z" fill="#727272"/>
<path d="M43.0158 62.5698C42.4988 61.9098 42.0553 60.7116 42.2287 59.8621C42.3321 59.3476 42.4522 59.1987 42.9791 59.1445C43.506 59.0904 43.6361 59.2494 44.0163 59.5608C44.4032 59.8756 44.78 60.2005 45.1636 60.5187C45.4937 60.7928 45.9573 60.3088 45.6238 60.0313C44.6833 59.2461 43.1725 57.4353 41.9752 58.8128C41.0481 59.8824 41.6717 61.9402 42.4455 62.9252C42.709 63.2603 43.2826 62.9116 43.0158 62.5698Z" fill="#727272"/>
<path d="M41.8185 65.2065C40.5178 64.6785 38.8202 65.8529 39.0203 67.3354C39.2071 68.7401 41.4383 69.2613 42.4421 68.4693C42.7756 68.2053 42.4321 67.6231 42.0953 67.8905C41.5483 68.3237 40.1876 68.2087 39.7874 67.5622C39.2004 66.6246 40.6312 65.4434 41.4983 65.7988C41.8885 65.9579 42.2153 65.3689 41.8185 65.2065Z" fill="#727272"/>
</g>
<defs>
<clipPath id="clip0_11_1590">
<rect width="44" height="49" fill="white" transform="translate(24)"/>
</clipPath>
<clipPath id="clip1_11_1590">
<rect width="83" height="40" fill="white" transform="translate(0 45)"/>
</clipPath>
</defs>
</svg>
