<svg width="68" height="87" viewBox="0 0 68 87" fill="none" xmlns="http://www.w3.org/2000/svg">
<g clip-path="url(#clip0_11_1475)">
<path d="M7.24876 40.7766C24.0215 39.0238 40.9382 41.7144 57.6697 39.29C58.4514 39.1753 58.1181 37.9918 57.3406 38.1064C40.7283 40.5104 23.9063 37.8075 7.24876 39.548C6.4671 39.6299 6.45887 40.8585 7.24876 40.7766Z" fill="#727272"/>
<path d="M7.0841 39.5726C5.44673 40.0804 5.65243 42.21 6.52048 43.3403C7.94392 45.1913 11.1405 45.2323 13.2263 45.0357C14.012 44.962 14.0162 43.7334 13.2263 43.8071C11.8769 43.9341 10.4781 43.9218 9.16577 43.5368C8.48285 43.3362 7.7629 43.0536 7.37208 42.4147C7.17049 42.083 6.78378 40.9527 7.41322 40.7602C8.17019 40.5227 7.84518 39.3351 7.0841 39.5726Z" fill="#727272"/>
<path d="M54.7816 39.675C55.6496 39.6217 56.4889 39.4743 57.3528 39.3596C58.7228 39.1753 59.4263 39.5439 59.6649 40.9773C59.8624 42.169 59.1095 42.5171 58.0481 42.8529C57.5462 43.0126 57.0196 43.1109 56.5012 43.2133C55.1148 43.4836 53.7243 43.6187 52.3132 43.6679C51.5233 43.6965 51.5192 44.9251 52.3132 44.8964C54.7199 44.8104 61.4792 44.7203 61.2159 40.9322C61.15 39.9862 60.2326 38.6798 59.3728 38.2539C58.0892 37.615 56.0898 38.3645 54.7775 38.4464C53.9917 38.4955 53.9876 39.7241 54.7816 39.675Z" fill="#727272"/>
<path d="M9.05479 44.7736C8.88611 47.3741 5.92405 48.8443 4.3525 50.6298C3.11831 52.0345 2.14741 53.6521 1.44392 55.3762C-0.0700261 59.0702 -0.358005 63.2105 0.41131 67.1051C1.99519 75.095 8.0592 81.6884 15.633 84.5182C16.3777 84.7967 16.6986 83.6091 15.9622 83.3347C8.09623 80.3943 1.98285 73.0269 1.29993 64.5783C0.974925 60.5649 1.82652 56.3878 4.07687 53.0092C5.94462 50.208 10.0545 48.4143 10.289 44.7736C10.3383 43.9873 9.10415 43.9873 9.05479 44.7736Z" fill="#727272"/>
<path d="M55.8225 44.2494C55.8225 47.4806 58.1798 49.5077 60.5782 51.3138C62.6393 52.8618 64.2356 54.3688 65.2517 56.7973C66.1362 58.9064 66.6258 61.1834 66.7368 63.4645C67.14 71.8557 62.2444 79.6449 54.7199 83.3102C54.0082 83.6583 54.6294 84.7189 55.3411 84.3708C62.3308 80.9677 67.2593 74.0507 67.9176 66.3025C68.2508 62.3833 67.5679 58.0669 65.5685 54.6309C63.3675 50.8428 57.0567 49.1064 57.0525 44.2494C57.0567 43.459 55.8225 43.459 55.8225 44.2494Z" fill="#727272"/>
<path d="M15.2668 83.6172C14.4687 85.3823 15.9003 86.9058 17.6776 86.9877C19.607 87.0819 21.6435 86.6355 23.577 86.5536C25.8191 86.4553 28.0613 86.4512 30.3034 86.4839C38.6712 86.6109 47.0349 87.2457 55.3658 86.1154C55.6496 86.0785 55.7936 85.7673 55.8183 85.5215C55.8841 84.8335 55.8265 84.3257 55.6249 83.6787C55.3904 82.9251 54.2015 83.2487 54.436 84.0063C54.6458 84.5018 54.6952 85.0096 54.5841 85.5215C54.7363 85.325 54.8844 85.1284 55.0366 84.9277C48.5407 85.8082 41.9871 85.5871 35.4541 85.3823C32.2863 85.284 29.1144 85.1939 25.9467 85.2472C24.4986 85.2717 23.0504 85.3291 21.6023 85.4274C20.8124 85.4806 20.0267 85.5543 19.2409 85.6321C18.6608 85.6895 15.4437 86.185 16.3282 84.2274C16.6532 83.519 15.5918 82.8965 15.2668 83.6172Z" fill="#727272"/>
<path d="M7.0801 51.2237C2.05281 57.3789 1.66199 65.9708 6.17502 72.5232C6.39718 72.8467 6.93199 72.5396 6.70984 72.212C2.36136 65.9011 2.66168 57.6041 7.52029 51.6537C7.76302 51.3547 7.33105 50.9165 7.0801 51.2237Z" fill="#727272"/>
<path d="M7.41333 74.8042C7.8165 75.3858 8.27727 75.9222 8.79152 76.4096C9.07949 76.6799 9.51558 76.2499 9.2276 75.9755C8.75038 75.525 8.32252 75.0336 7.94404 74.4971C7.72188 74.1736 7.18706 74.4766 7.41333 74.8042Z" fill="#727272"/>
<path d="M10.865 78.3385C11.264 78.3385 11.264 77.7242 10.865 77.7242C10.4659 77.7242 10.4659 78.3385 10.865 78.3385Z" fill="#727272"/>
<path d="M54.6294 44.2822C54.3126 45.4616 54.0411 46.6492 54.506 47.8287C54.938 48.9221 55.8142 49.9091 56.5589 50.8141C58.3443 52.9764 61.9976 55.1592 62.1703 58.1734C62.1909 58.5665 62.808 58.5706 62.7874 58.1734C62.6599 55.9169 60.9896 54.4712 59.451 53.0051C58.4595 52.0591 57.5257 51.0558 56.67 49.9828C56.094 49.2579 55.444 48.4921 55.1108 47.6198C54.7035 46.5591 54.938 45.5148 55.2218 44.4501C55.3247 44.0651 54.7282 43.9013 54.6294 44.2822Z" fill="#727272"/>
<path d="M62.4378 59.5986C62.5242 60.3849 62.6105 61.1711 62.6969 61.9574C62.7381 62.3465 63.3593 62.3506 63.314 61.9574C63.2276 61.1711 63.1412 60.3849 63.0549 59.5986C63.0137 59.2095 62.3966 59.2054 62.4378 59.5986Z" fill="#727272"/>
<path d="M62.4954 63.575C62.5406 63.8044 62.5036 64.0214 62.4172 64.2344C62.3555 64.39 62.4872 64.5702 62.6311 64.6111C62.808 64.6603 62.9479 64.5497 63.0096 64.3982C63.1372 64.0788 63.1536 63.747 63.0878 63.4112C63.0179 63.0263 62.4213 63.1901 62.4954 63.575Z" fill="#727272"/>
<path d="M35.7423 59.0824C37.2151 56.2977 39.9879 54.4753 43.2091 54.635C47.0434 54.8234 51.0751 58.1446 48.3887 62.0679C46.813 64.3654 43.9826 65.8519 41.8968 67.662C39.5806 69.6728 37.4619 71.8884 35.5078 74.2554C35.0059 74.8615 35.8739 75.7338 36.3799 75.1236C39.3585 71.5157 42.7278 68.4647 46.4304 65.6144C48.9029 63.706 51.6387 60.8106 50.1371 57.4566C48.8947 54.68 45.4636 53.3163 42.5715 53.3982C39.1651 53.4965 36.2442 55.495 34.6726 58.46C34.3065 59.1603 35.372 59.7827 35.7423 59.0824Z" fill="#727272"/>
<path d="M35.4502 58.1283C32.8131 55.1756 29.5219 52.1328 25.2516 52.354C22.0838 52.5178 19.3563 54.9094 18.8996 58.0587C18.336 61.896 21.2158 65.2623 24.0215 67.486C27.469 70.2176 32.6691 71.1636 35.2486 74.8657C35.697 75.5128 36.7666 74.8985 36.3141 74.2473C34.7055 71.9376 32.3647 70.7499 29.8798 69.5541C26.7203 68.0348 23.606 66.155 21.5737 63.2228C19.3069 59.9589 19.6813 54.9667 24.075 53.7709C28.3741 52.6038 31.9944 56.1093 34.5739 58.9965C35.1046 59.5903 35.9767 58.718 35.4502 58.1283Z" fill="#727272"/>
</g>
<g clip-path="url(#clip1_11_1475)">
<path d="M31.472 12.629C30.2831 14.782 28.4689 16.507 26.1405 17.4C25.2314 17.7507 24.0343 17.7303 24.1536 16.4866C24.2276 15.7118 25.0668 15.039 25.6757 14.676C26.7123 14.0562 28.0411 13.8523 29.1559 13.3711C29.8799 13.0571 29.2547 12.001 28.5347 12.315C26.5437 13.1754 24.3634 13.3793 23.2321 15.4671C22.6274 16.5844 22.4299 18.1381 23.7916 18.7742C25.2684 19.4634 27.3006 18.3501 28.5265 17.5672C30.2296 16.4825 31.5666 15.0022 32.5333 13.2447C32.92 12.5556 31.8546 11.9357 31.472 12.629Z" fill="#46A358"/>
<path d="M28.8968 12.1191C27.3994 12.2822 25.9143 12.2904 24.4293 12.0131C23.8863 11.9111 23.3474 11.7725 22.8208 11.6053C22.3765 11.4748 21.9487 11.3158 21.525 11.1241C20.8955 10.333 20.9573 9.89262 21.7183 9.79476C23.948 8.09024 27.4323 9.88039 29.6209 10.7082C30.3655 10.9895 30.6863 9.80699 29.95 9.5297C28.0453 8.80793 25.9555 7.72324 23.8616 7.95567C22.6604 8.08616 19.8918 8.60404 19.5709 10.1006C18.8304 13.5667 27.1073 13.5422 28.8968 13.3465C29.6785 13.2568 29.6867 12.0335 28.8968 12.1191Z" fill="#46A358"/>
<path d="M30.353 9.55004C28.4812 8.07796 26.8192 5.78624 26.9097 3.30286C26.9509 2.19778 27.6584 1.72884 28.6828 2.22633C29.2463 2.49954 29.6372 3.19684 29.9457 3.72288C30.6615 4.95437 30.9618 6.36121 31.2251 7.74358C31.3732 8.51428 32.5621 8.18806 32.414 7.41736C32.019 5.35399 31.4554 3.205 29.9169 1.66359C29.0078 0.754243 27.4939 -0.289671 26.4243 0.933666C23.9231 3.7922 27.1977 8.61623 29.4808 10.4145C30.0979 10.8998 30.9782 10.0394 30.353 9.55004Z" fill="#46A358"/>
<path d="M32.3853 7.75594C32.6568 5.79044 33.5207 2.05111 35.7998 1.41497C37.9184 0.827768 37.7086 4.20418 37.1162 5.32149C36.5197 6.44697 35.3473 7.50311 34.4957 8.44508C33.9691 9.02821 34.8371 9.89678 35.3678 9.30958C36.5896 7.95575 38.4161 6.40211 38.6794 4.49778C38.8851 3.02162 38.774 0.791068 37.1326 0.138621C35.6352 -0.456736 34.1543 0.89709 33.3027 1.96139C32.048 3.52727 31.4639 5.4683 31.1923 7.42156C31.0854 8.20042 32.2743 8.53479 32.3853 7.75594Z" fill="#46A358"/>
<path d="M35.454 9.46465C36.8897 8.27393 39.5555 7.44614 41.3079 8.5186C43.5787 9.91321 40.3618 10.7492 39.3004 10.8185C38.165 10.896 37.0296 10.8266 35.9024 10.6961C35.1167 10.6064 35.1208 11.8298 35.9024 11.9195C37.7454 12.1315 40.2342 12.4047 41.9497 11.4995C43.0152 10.9367 43.7803 9.57475 43.1262 8.42889C42.394 7.14439 40.333 6.83447 38.996 6.87117C37.3381 6.92011 35.8448 7.55624 34.586 8.60016C33.9731 9.1058 34.8493 9.9703 35.454 9.46465Z" fill="#46A358"/>
<path d="M35.5858 11.8786C36.857 12.3434 38.1199 13.0448 38.8439 14.2274C39.749 15.7117 39.7695 18.4438 37.1367 17.9341C34.8207 17.4855 33.1464 15.047 32.6733 12.9306C32.5005 12.164 31.3116 12.4861 31.4844 13.2568C31.904 15.1408 32.953 16.8045 34.5245 17.9585C35.7586 18.8679 37.9266 19.9526 39.3787 18.9209C40.872 17.8607 40.872 15.6668 40.1974 14.158C39.3993 12.3801 37.7003 11.3484 35.9232 10.696C35.1662 10.4269 34.8453 11.6094 35.5858 11.8786Z" fill="#46A358"/>
<path d="M23.1046 15.2469C19.5009 17.4 16.8434 19.7977 16.214 24.112C15.527 28.7974 16.6254 33.6949 17.6291 38.2579C17.7978 39.0286 18.9867 38.7024 18.818 37.9317C17.9294 33.8947 17.0203 29.7109 17.2959 25.5556C17.5962 21.0252 19.9658 18.5499 23.7216 16.3072C24.4045 15.8994 23.7874 14.8391 23.1046 15.2469Z" fill="#46A358"/>
<path d="M39.0085 13.8644C44.0479 14.2559 47.6145 18.2684 48.9679 22.8641C50.4407 27.8675 49.6179 33.1361 48.8157 38.1762C48.6923 38.9469 49.8812 39.2772 50.0046 38.5024C50.9425 32.5896 51.8846 26.3098 49.4616 20.6091C47.6268 16.2907 43.8175 13.0162 39.0085 12.6411C38.2145 12.5799 38.2186 13.8032 39.0085 13.8644Z" fill="#46A358"/>
<path d="M24.3263 17.7832C18.2996 22.1302 20.2536 31.9576 21.4713 38.0662C21.6235 38.8369 22.8165 38.5107 22.6602 37.74C22.0226 34.543 21.4302 31.3093 21.4919 28.0389C21.5536 24.8582 22.1583 20.8497 24.9475 18.8394C25.5851 18.3786 24.9721 17.3184 24.3263 17.7832Z" fill="#46A358"/>
<path d="M31.0936 13.8277C28.8516 17.249 27.4035 21.074 26.877 25.1273C26.6014 27.2518 26.5808 29.4049 26.8358 31.5335C27.1115 33.8578 27.8643 36.0925 28.144 38.4168C28.2345 39.1875 29.4728 39.1997 29.3782 38.4168C28.8927 34.3594 27.6421 30.6242 27.9712 26.473C28.3127 22.1627 29.7937 18.0605 32.1632 14.4435C32.591 13.7829 31.5256 13.1712 31.0936 13.8277Z" fill="#46A358"/>
<path d="M34.1088 17.6079C35.9477 20.6173 36.3344 24.0223 36.6552 27.4599C36.9885 31.0361 37.26 34.6164 37.4903 38.2008C37.5397 38.9837 38.7738 38.9878 38.7245 38.2008C38.4653 34.1434 38.1732 30.086 37.7536 26.0408C37.4245 22.8642 36.8692 19.7528 35.1743 16.9881C34.7629 16.3193 33.6933 16.931 34.1088 17.6079Z" fill="#46A358"/>
<path d="M39.7242 18.1788C44.3193 23.9081 44.4715 31.2237 44.307 38.2049C44.2905 38.9919 45.5246 38.9919 45.5411 38.2049C45.7139 30.8404 45.4177 23.3291 40.5963 17.3143C40.1027 16.6986 39.2347 17.5712 39.7242 18.1788Z" fill="#46A358"/>
<path d="M31.9532 19.6713C31.8833 19.9445 31.8174 20.2136 31.7475 20.4868C31.6529 20.8701 32.2453 21.0333 32.344 20.6499C32.4139 20.3767 32.4798 20.1076 32.5497 19.8344C32.6443 19.4551 32.0519 19.292 31.9532 19.6713Z" fill="#46A358"/>
<path d="M33.2861 21.7957C33.2861 22.1015 33.2861 22.4074 33.2861 22.7132C33.2861 23.1087 33.9032 23.1087 33.9032 22.7132C33.9032 22.4074 33.9032 22.1015 33.9032 21.7957C33.9032 21.4001 33.2861 21.4001 33.2861 21.7957Z" fill="#46A358"/>
<path d="M30.3077 23.7328C30.2748 24.1732 30.2377 24.6177 30.2048 25.0581C30.176 25.4496 30.7931 25.4496 30.8219 25.0581C30.8548 24.6177 30.8918 24.1732 30.9247 23.7328C30.9535 23.3413 30.3365 23.3413 30.3077 23.7328Z" fill="#46A358"/>
<path d="M34.3147 25.8735C34.3147 26.2813 34.3147 26.6891 34.3147 27.0968C34.3147 27.4924 34.9318 27.4924 34.9318 27.0968C34.9318 26.6891 34.9318 26.2813 34.9318 25.8735C34.9318 25.478 34.3147 25.478 34.3147 25.8735Z" fill="#46A358"/>
<path d="M31.9492 28.1163C31.9492 28.5567 31.9492 29.0012 31.9492 29.4416C31.9492 29.8371 32.5663 29.8371 32.5663 29.4416C32.5663 29.0012 32.5663 28.5567 32.5663 28.1163C32.5663 27.7208 31.9492 27.7208 31.9492 28.1163Z" fill="#46A358"/>
<path d="M30.6123 32.6018C30.6123 33.2135 30.6123 33.8252 30.6123 34.4368C30.6123 34.8324 31.2294 34.8324 31.2294 34.4368C31.2294 33.8252 31.2294 33.2135 31.2294 32.6018C31.2294 32.2063 30.6123 32.2063 30.6123 32.6018Z" fill="#46A358"/>
<path d="M28.7816 28.6016C28.8515 29.0094 28.9256 29.4172 28.9955 29.8249C29.0613 30.2123 29.6578 30.0492 29.592 29.6618C29.522 29.254 29.448 28.8463 29.3781 28.4385C29.3081 28.0552 28.7116 28.2183 28.7816 28.6016Z" fill="#46A358"/>
<path d="M33.5001 34.6408C33.533 35.0486 33.5701 35.4564 33.603 35.8642C33.6359 36.2556 34.2529 36.2556 34.22 35.8642C34.1871 35.4564 34.1501 35.0486 34.1172 34.6408C34.0843 34.2494 33.4631 34.2453 33.5001 34.6408Z" fill="#46A358"/>
<path d="M35.3472 30.0533C35.3801 30.4611 35.4172 30.8689 35.4501 31.2766C35.483 31.664 36.1 31.6681 36.0671 31.2766C36.0342 30.8689 35.9972 30.4611 35.9643 30.0533C35.9314 29.6618 35.3143 29.6578 35.3472 30.0533Z" fill="#46A358"/>
<path d="M42.4311 16.4009C42.9083 16.8128 43.3855 17.2247 43.8627 17.6324C44.163 17.8893 44.599 17.4571 44.2987 17.2002C43.8215 16.7883 43.3443 16.3765 42.8671 15.9687C42.571 15.7118 42.1308 16.14 42.4311 16.4009Z" fill="#46A358"/>
<path d="M42.6901 19.8058C42.9575 20.2829 43.229 20.764 43.4964 21.2411C43.6898 21.5837 44.2246 21.2779 44.0312 20.9312C43.7638 20.4541 43.4923 19.973 43.2249 19.4959C43.0275 19.1533 42.4968 19.4632 42.6901 19.8058Z" fill="#46A358"/>
<path d="M45.1627 20.0056C45.4671 20.4174 45.7715 20.8293 46.0759 21.2371C46.3063 21.5511 46.8452 21.2452 46.6107 20.9272C46.3063 20.5153 46.0019 20.1034 45.6975 19.6957C45.463 19.3858 44.9282 19.6875 45.1627 20.0056Z" fill="#46A358"/>
<path d="M46.6846 25.3394C46.7874 26.053 46.8944 26.7666 46.9972 27.4802C47.0548 27.8676 47.6472 27.7045 47.5937 27.3171C47.4909 26.6035 47.3839 25.8899 47.2811 25.1763C47.2194 24.7889 46.627 24.9561 46.6846 25.3394Z" fill="#46A358"/>
<path d="M44.6114 23.5085C44.7142 23.8469 44.8171 24.1895 44.9199 24.5279C45.0351 24.9031 45.6275 24.744 45.5164 24.3648C45.4136 24.0263 45.3107 23.6838 45.2079 23.3453C45.0927 22.9702 44.4962 23.1292 44.6114 23.5085Z" fill="#46A358"/>
<path d="M47.8818 31.1746C47.9271 31.6599 47.9188 32.1452 47.8407 32.6263C47.779 33.0096 48.3714 33.1768 48.4372 32.7894C48.5236 32.2512 48.5524 31.717 48.503 31.1746C48.4619 30.7873 47.8448 30.7832 47.8818 31.1746Z" fill="#46A358"/>
<path d="M46.4502 33.1115C46.4502 33.4867 46.4502 33.8578 46.4502 34.2329C46.4502 34.6285 47.0673 34.6285 47.0673 34.2329C47.0673 33.8578 47.0673 33.4867 47.0673 33.1115C47.0673 32.716 46.4502 32.716 46.4502 33.1115Z" fill="#46A358"/>
<path d="M47.0879 22.8928C47.2565 23.3006 47.4293 23.7084 47.598 24.1162C47.6638 24.2711 47.8037 24.3771 47.9764 24.3282C48.1204 24.2915 48.2562 24.1039 48.1904 23.953C48.0217 23.5453 47.8489 23.1375 47.6803 22.7297C47.6144 22.5747 47.4746 22.4687 47.3018 22.5177C47.1578 22.5544 47.0262 22.7419 47.0879 22.8928Z" fill="#46A358"/>
<path d="M45.936 29.9513C45.936 30.1878 45.936 30.4284 45.936 30.6649C45.936 31.0605 46.5531 31.0605 46.5531 30.6649C46.5531 30.4284 46.5531 30.1878 46.5531 29.9513C46.5531 29.5558 45.936 29.5558 45.936 29.9513Z" fill="#46A358"/>
<path d="M47.1701 36.7816C47.1537 37.0712 47.0837 37.3485 46.9768 37.6176C46.9151 37.7725 47.0467 37.952 47.1907 37.9927C47.3676 38.0417 47.5075 37.9316 47.5692 37.7807C47.7008 37.4586 47.7666 37.1283 47.7872 36.7816C47.8119 36.3861 47.1948 36.3902 47.1701 36.7816Z" fill="#46A358"/>
<path d="M21.2905 18.8842C21.0807 19.186 20.8709 19.4877 20.657 19.7895C20.4307 20.1157 20.9655 20.4216 21.1918 20.0994C21.4016 19.7976 21.6114 19.4959 21.8253 19.1941C22.0474 18.8679 21.5126 18.5621 21.2905 18.8842Z" fill="#46A358"/>
<path d="M19.5297 23.3452C19.4515 23.7163 19.3775 24.0874 19.2993 24.4625C19.2212 24.8458 19.8135 25.013 19.8958 24.6256C19.974 24.2546 20.048 23.8835 20.1262 23.5083C20.2044 23.125 19.6079 22.9619 19.5297 23.3452Z" fill="#46A358"/>
<path d="M19.3322 21.1229C19.0072 21.5511 18.7645 22.0241 18.6 22.5338C18.4766 22.909 19.073 23.068 19.1965 22.6969C19.3487 22.2361 19.5749 21.8202 19.867 21.4328C20.1056 21.1148 19.5667 20.813 19.3322 21.1229Z" fill="#46A358"/>
<path d="M18.0776 25.1802C18.0035 25.69 17.9254 26.1956 17.8513 26.7053C17.7937 27.0886 18.3902 27.2558 18.4478 26.8684C18.5219 26.3587 18.6 25.8531 18.6741 25.3434C18.7317 24.956 18.1352 24.7888 18.0776 25.1802Z" fill="#46A358"/>
<path d="M18.6947 28.1163C18.6412 28.626 18.6741 29.1276 18.7728 29.6292C18.8469 30.0165 19.4434 29.8534 19.3693 29.466C19.2829 29.0175 19.2665 28.5689 19.3158 28.1163C19.3488 27.7248 18.7317 27.7289 18.6947 28.1163Z" fill="#46A358"/>
<path d="M19.2006 31.9903C19.2335 32.2962 19.2705 32.602 19.3034 32.9078C19.3199 33.071 19.4309 33.2137 19.6119 33.2137C19.7641 33.2137 19.941 33.075 19.9205 32.9078C19.8876 32.602 19.8505 32.2962 19.8176 31.9903C19.8012 31.8272 19.6901 31.6845 19.5091 31.6845C19.3569 31.6845 19.1841 31.8232 19.2006 31.9903Z" fill="#46A358"/>
<path d="M18.2008 34.2902C18.4394 34.6776 18.6122 35.0854 18.7192 35.5298C18.8138 35.9132 19.4062 35.7501 19.3156 35.3667C19.1964 34.8774 18.9989 34.4125 18.7356 33.9803C18.5258 33.6459 17.9951 33.9558 18.2008 34.2902Z" fill="#46A358"/>
<path d="M19.5173 36.8632C19.5872 37.0345 19.6531 37.2017 19.723 37.373C19.7847 37.5238 19.9287 37.6339 20.1015 37.585C20.2496 37.5442 20.3812 37.3648 20.3154 37.2099C20.2455 37.0386 20.1796 36.8714 20.1097 36.7001C20.048 36.5492 19.904 36.4391 19.7312 36.4881C19.5872 36.5248 19.4556 36.7083 19.5173 36.8632Z" fill="#46A358"/>
</g>
<defs>
<clipPath id="clip0_11_1475">
<rect width="68" height="49" fill="white" transform="translate(0 38)"/>
</clipPath>
<clipPath id="clip1_11_1475">
<rect width="35" height="39" fill="white" transform="translate(16)"/>
</clipPath>
</defs>
</svg>
